<svg xmlns="http://www.w3.org/2000/svg" viewBox="0 0 12.9 17.3" class="undefined"><style>.a{fill:none;}.b{fill:#B6ADA5;}</style><path d="M6.4 5.8C6.4 6.4 5.8 7 5.1 7H4.5v0c0 1 0.8 1.9 1.9 1.9 1 0 1.9-0.8 1.9-1.9v0H7.8C7.1 7 6.5 6.4 6.4 5.8z" class="a"/><path d="M8.7 5.3h-1c-0.2 0-0.4 0.2-0.4 0.4S7.6 6 7.8 6h1c0.2 0 0.4-0.2 0.4-0.4S8.9 5.3 8.7 5.3z" class="a"/><path d="M4.1 6h1c0.2 0 0.4-0.2 0.4-0.4S5.3 5.3 5.1 5.3h-1c-0.2 0-0.4 0.2-0.4 0.4S3.9 6 4.1 6z" class="a"/><path d="M8.3 2.8V1H4.5v1.8C5 2.7 5.7 2.5 6.4 2.5 7.2 2.5 7.9 2.7 8.3 2.8z" class="a"/><path d="M7.8 4.3h0.6V3.8C7.9 3.7 7.3 3.5 6.4 3.5c-0.8 0-1.5 0.2-1.9 0.3v0.5h0.6c0.7 0 1.3 0.5 1.3 1.2C6.5 4.8 7.1 4.3 7.8 4.3z" class="a"/><polygon points="8.6 11.4 4.3 11.4 6.4 15.1 " class="a"/><path d="M10 10.4H2.9c-1.6 0-2.9 1.3-2.9 2.9v3.5c0 0.3 0.2 0.5 0.5 0.5S1 17 1 16.8v-3.5c0-1 0.8-1.9 1.9-1.9h0.3L3 11.1c-0.1-0.2-0.1-0.5 0.2-0.7 0.2-0.1 0.5-0.1 0.7 0.2l0.4 0.8h4.3L9 10.6c0.1-0.2 0.4-0.3 0.7-0.2 0.2 0.1 0.3 0.4 0.2 0.7l-0.1 0.3H10c1 0 1.9 0.8 1.9 1.9v3.5c0 0.3 0.2 0.5 0.5 0.5s0.5-0.2 0.5-0.5v-3.5C12.9 11.7 11.6 10.4 10 10.4z" class="b"/><path d="M9.7 10.4c-0.2-0.1-0.5-0.1-0.7 0.2l-0.4 0.8 -2.1 3.7 -2.1-3.7 -0.4-0.8c-0.1-0.2-0.4-0.3-0.7-0.2 -0.2 0.1-0.3 0.4-0.2 0.7l0.1 0.3L6 16.3c0.1 0.2 0.3 0.3 0.4 0.3s0.3-0.1 0.4-0.3l2.9-4.9 0.1-0.3C10 10.9 9.9 10.6 9.7 10.4z" class="b"/><path d="M4 6c0.3 0 0.5 0.2 0.5 0.5V7h0.6c0.7 0 1.3-0.5 1.3-1.2 0 0 0-0.1 0-0.1s0-0.1 0-0.1C6.4 4.8 5.8 4.3 5.1 4.3H4.5v0.5c0 0.3-0.2 0.5-0.5 0.5S3.5 5.1 3.5 4.8V4.4C3.1 4.6 2.8 5.1 2.8 5.6s0.3 1 0.8 1.2V6.5C3.5 6.2 3.8 6 4 6zM4.1 5.3h1c0.2 0 0.4 0.2 0.4 0.4S5.3 6 5.1 6h-1C3.9 6 3.8 5.8 3.8 5.6S3.9 5.3 4.1 5.3z" class="b"/><path d="M8.8 5.3c-0.3 0-0.5-0.2-0.5-0.5V4.3H7.8c-0.7 0-1.3 0.5-1.3 1.2 0 0 0 0.1 0 0.1s0 0.1 0 0.1C6.5 6.4 7.1 7 7.8 7h0.6V6.5C8.3 6.2 8.6 6 8.8 6s0.5 0.2 0.5 0.5v0.4c0.5-0.2 0.8-0.7 0.8-1.2s-0.3-1-0.8-1.2v0.4C9.3 5.1 9.1 5.3 8.8 5.3zM8.7 6h-1C7.6 6 7.4 5.8 7.4 5.6s0.2-0.4 0.4-0.4h1c0.2 0 0.4 0.2 0.4 0.4S8.9 6 8.7 6z" class="b"/><path d="M8.3 3.8v-1C7.9 2.7 7.2 2.5 6.4 2.5 5.7 2.5 5 2.7 4.5 2.8v1c0.4-0.1 1.1-0.3 1.9-0.3C7.3 3.5 7.9 3.7 8.3 3.8z" class="b"/><path d="M6.4 9.9C8 9.9 9.3 8.6 9.3 7V6.8 6.5C9.3 6.2 9.1 6 8.8 6S8.3 6.2 8.3 6.5V7v0c0 1-0.8 1.9-1.9 1.9C5.4 8.9 4.5 8 4.5 7v0V6.5C4.5 6.2 4.3 6 4 6S3.5 6.2 3.5 6.5v0.4V7C3.5 8.6 4.8 9.9 6.4 9.9z" class="b"/><path d="M4 5.3c0.3 0 0.5-0.2 0.5-0.5V4.3 3.8v-1V1h3.8v1.8 1 0.5 0.5c0 0.3 0.2 0.5 0.5 0.5s0.5-0.2 0.5-0.5V4.4 0.5C9.3 0.2 9.1 0 8.8 0H4C3.8 0 3.5 0.2 3.5 0.5v3.9 0.4C3.5 5.1 3.8 5.3 4 5.3z" class="b"/></svg>
