<svg xmlns="http://www.w3.org/2000/svg" viewBox="0 0 9.8 17.1" class="undefined"><style>.a{fill:#B6ADA5;}</style><path d="M6.1 14.4v-0.7c0-0.4 0.2-0.7 0.6-0.8 1.9-0.5 3.2-2.2 3.2-4.1V5c0-1.3-0.6-2.7-1.5-3.6C7.4 0.5 6.1 0 4.8 0 2.2 0.1 0 2.3 0 4.9c0 0.3 0.2 0.5 0.5 0.5S1 5.2 1 4.9C1 2.8 2.7 1 4.8 1c1 0 2 0.4 2.8 1.1C8.4 2.9 8.8 3.9 8.8 5v3.8c0 1.5-1 2.8-2.4 3.1 -0.8 0.2-1.3 0.9-1.3 1.7v0.7c0 0.9-0.7 1.7-1.6 1.7 -0.4 0-0.9-0.1-1.2-0.5 -0.3-0.3-0.5-0.7-0.5-1.2v-0.5c0-0.7-0.6-1.3-1.3-1.3 -0.3 0-0.5 0.2-0.5 0.5s0.2 0.5 0.5 0.5c0.2 0 0.3 0.1 0.3 0.3v0.5c0 0.7 0.3 1.4 0.8 1.9 0.5 0.5 1.2 0.7 1.8 0.7 0 0 0.1 0 0.1 0C4.9 17.1 6.1 15.8 6.1 14.4z" class="a"/><path d="M5.8 9.8c-0.7 0.2-1.4 0.6-1.9 1.2 -0.2 0.2-0.2 0.5 0 0.7 0.1 0.1 0.2 0.1 0.3 0.1 0.1 0 0.3-0.1 0.4-0.2 0.4-0.4 0.9-0.7 1.5-0.9 0.9-0.2 1.5-1 1.5-1.9V5c0-1.5-1.2-2.7-2.7-2.7 -1.4 0-2.6 1.2-2.6 2.7V8c0 0.3 0.2 0.5 0.5 0.5S3.3 8.3 3.3 8V4.9C3.3 4 4 3.3 4.9 3.3c0.9 0 1.7 0.8 1.7 1.7v3.8C6.6 9.3 6.3 9.6 5.8 9.8z" class="a"/></svg>
