<svg xmlns="http://www.w3.org/2000/svg" viewBox="0 0 10.2 17.8" class="undefined"><style>.a{fill:none;}.b{fill:#B6ADA5;}</style><path d="M8.9 6.6C8.9 6.6 8.9 6.6 8.9 6.6c0.2-0.5 0.3-1 0.3-1.5C9.2 2.8 7.3 1 5.1 1S1 2.8 1 5.1c0 2.3 1.8 4.1 4.1 4.1 0.4 0 0.8-0.1 1.1-0.2C6.5 9 6.8 9.1 6.8 9.4 6.9 9.6 6.8 9.9 6.5 10c-0.5 0.1-0.9 0.2-1.4 0.2 -1 0-1.9-0.3-2.7-0.8L5.1 16 8.9 6.6z" class="a"/><path d="M4.9 17.8c0.1 0 0.1 0 0.2 0C5 17.8 4.9 17.8 4.9 17.8 4.9 17.7 4.9 17.8 4.9 17.8z" class="b"/><path d="M5.4 17.7C5.4 17.7 5.4 17.7 5.4 17.7 5.4 17.7 5.4 17.7 5.4 17.7z" class="b"/><path d="M9.2 7.3C8.9 7.2 8.8 6.9 8.9 6.6c0 0 0 0 0 0 0 0 0 0 0 0L5.1 16l0.5 1.1c0.1 0.1 0 0.3 0 0.4 0 0 0 0 0 0L9.8 7C9.7 7.3 9.4 7.4 9.2 7.3z" class="b"/><path d="M4.8 17.7c-0.1-0.1-0.1-0.1-0.2-0.2C4.7 17.6 4.7 17.6 4.8 17.7z" class="b"/><path d="M5.6 17.1L5.1 16 2.4 9.4C1.5 8.8 0.8 8 0.4 7c0 0 0 0 0 0.1l4.3 10.5c0 0 0 0 0 0 0 0.1 0.1 0.1 0.2 0.2 0 0 0 0 0.1 0 0.1 0 0.2 0.1 0.2 0.1 0.1 0 0.1 0 0.2 0 0 0 0 0 0.1 0 0 0 0 0 0.1 0 0.1-0.1 0.1-0.1 0.2-0.2C5.6 17.4 5.6 17.2 5.6 17.1z" class="b"/><path d="M10.2 5.1L10.2 5.1C10.2 2.3 7.9 0 5.1 0 2.3 0 0 2.3 0 5.1v0C0 5.8 0.1 6.4 0.4 7c0.4 1 1.1 1.9 2.1 2.5 0.8 0.5 1.7 0.8 2.7 0.8 0.5 0 0.9-0.1 1.4-0.2 0.3-0.1 0.4-0.4 0.3-0.6C6.8 9.1 6.5 9 6.2 9 5.9 9.1 5.5 9.2 5.1 9.2 2.8 9.2 1 7.3 1 5.1 1 2.8 2.8 1 5.1 1s4.1 1.8 4.1 4.1c0 0.5-0.1 1-0.3 1.5 0 0 0 0 0 0 -0.1 0.3 0 0.5 0.3 0.7 0.3 0.1 0.5 0 0.6-0.3 0 0 0 0 0 0C10.1 6.4 10.2 5.8 10.2 5.1z" class="b"/></svg>
