<?xml version="1.0" encoding="utf-8"?>
<!-- Generator: Adobe Illustrator 21.0.0, SVG Export Plug-In . SVG Version: 6.00 Build 0)  -->
<svg version="1.1" id="Слой_1" xmlns="http://www.w3.org/2000/svg" xmlns:xlink="http://www.w3.org/1999/xlink" x="0px" y="0px"
	 viewBox="0 0 242.5 392.1" style="enable-background:new 0 0 242.5 392.1;" xml:space="preserve">
<style type="text/css">
	.st0{clip-path:url(#SVGID_2_);fill:#00FFB8;}
	.st1{clip-path:url(#SVGID_2_);fill:#39A2B8;}
	.st2{clip-path:url(#SVGID_2_);fill:#FF00B3;}
</style>
<g>
	<defs>
		<rect id="SVGID_1_" width="242.5" height="392.1"/>
	</defs>
	<clipPath id="SVGID_2_">
		<use xlink:href="#SVGID_1_"  style="overflow:visible;"/>
	</clipPath>
	<path class="st0" d="M88.5,369.5c-27.4,0-49.6-22.3-49.6-49.6c0-27.4,22.3-49.6,49.6-49.6s49.6,22.3,49.6,49.6
		C138.2,347.3,115.9,369.5,88.5,369.5 M88.5,290.1c-16.4,0-29.8,13.4-29.8,29.8c0,16.4,13.4,29.8,29.8,29.8s29.8-13.4,29.8-29.8
		C118.3,303.5,105,290.1,88.5,290.1"/>
	<path class="st1" d="M239.6,276.8c3.9,3.9,3.9,10.2,0,14l-35.3,35.3c-3.9,3.9-10.2,3.9-14,0c-3.9-3.9-3.9-10.2,0-14l35.3-35.3
		C229.4,272.9,235.7,272.9,239.6,276.8"/>
	<path class="st2" d="M37.1,59.5c3.9,3.9,3.9,10.2,0,14L17,93.7c-3.9,3.9-10.2,3.9-14,0c-3.9-3.9-3.9-10.2,0-14l20.2-20.2
		C26.9,55.7,33.2,55.7,37.1,59.5"/>
	<path class="st0" d="M84.2,2.9c3.9-3.9,10.2-3.9,14,0l35.3,35.3c3.9,3.9,3.9,10.2,0,14c-3.9,3.9-10.2,3.9-14,0L84.2,17
		C80.3,13.1,80.3,6.8,84.2,2.9"/>
	<path class="st2" d="M156.2,358.9c3.9-3.9,10.2-3.9,14,0l16.2,16.2c3.9,3.9,3.9,10.2,0,14c-3.9,3.9-10.2,3.9-14,0L156.2,373
		C152.3,369.1,152.3,362.8,156.2,358.9"/>
</g>
</svg>
