<?xml version="1.0" encoding="utf-8"?>
<!-- Generator: Adobe Illustrator 21.0.0, SVG Export Plug-In . SVG Version: 6.00 Build 0)  -->
<svg version="1.2" baseProfile="tiny" id="Layer_1" xmlns="http://www.w3.org/2000/svg" xmlns:xlink="http://www.w3.org/1999/xlink"
	 x="0px" y="0px" viewBox="0 0 974.4 425.2" xml:space="preserve">
<g>
	<g>
		<path id="XMLID_16_" fill="#AC162C" d="M885.8,354.3H88.6c-9.8,0-17.7-7.9-17.7-17.7v-248c0-9.8,7.9-17.7,17.7-17.7h797.2
			c9.8,0,17.7,7.9,17.7,17.7v248C903.5,346.4,895.6,354.3,885.8,354.3z"/>
		<g>
			<g>
				<path fill="#FFFFFF" d="M227,178.1L227,178.1c-2,4.7-3.2,12.5-3.2,20.8c0,13.7,2.5,22,7.9,26.7c5.6,4.9,14.7,5.6,23.7,5.6
					c8.6,0,13.9-0.7,23.4-2.1l0.7-0.1l0.1-9.6l-0.5,0.1c-0.1,0-12,2.1-24.2,2.1c-8.3,0-13.7-1.5-16.3-4.3c-3.2-3.6-3.7-8.8-3.8-14
					c2.6,0.1,17.7,0.5,26.1,0.5c7.6,0,21-1,21.2-1l0.3,0l0-0.3c0-0.1,0.3-5.8,0.3-8c0-10.6-1.4-17-4.8-21.3
					c-4.8-5.8-14.9-6.6-24.1-6.6C242.5,166.7,231.3,168.1,227,178.1z M254.7,176c6.7,0,11.3,0.5,13.5,2.9c2.2,2.3,3.3,7.4,3.4,15.6
					c-9.5,0.4-27.5,0.4-36.5-0.6C235.8,179.4,236.8,176,254.7,176z"/>
				<g>
					<g>
						<path fill="#FFFFFF" d="M304.5,148.3c-4.1,4-6,10.2-6,19.5c0,10.4,2.6,16.5,8.6,19.8c5.4,3,13.3,3.4,22.4,3.9l3.3,0.2
							c8.7,0.4,14.2,0.8,17.2,2.7c2.7,1.7,3.7,4.8,3.7,11.8c0,6.1-1.2,9.4-4.2,11.6c-3,2.2-8.2,3.1-16.7,3.1
							c-13.1,0-32.3-2.4-32.3-2.4l-0.1,10.7c0,0,16.4,2.2,32.5,2.2c13.3,0,21.1-1.8,26-6c4.9-4.2,6.8-10.4,6.8-21.4
							c0-10.3-2.7-16.7-8.6-20.2c-5.3-3.1-12.5-3.5-21-4l-8.2-0.5l-1.6-0.1c-11.5-0.7-15.8-1-15.8-11.2c0-5.8,0.6-9.7,3.4-12.2
							c3-2.6,8.6-3.8,18.2-3.8c13.2,0,29.3,2,29.3,2l0-10.2l-0.3,0c-0.2,0-17.8-2.1-29.4-2.1C316.9,141.6,309.5,143.4,304.5,148.3z
							 M304.5,148.3L304.5,148.3L304.5,148.3z"/>
					</g>
				</g>
				<path fill="#FFFFFF" d="M385.7,173.1c-4.4,5.1-5.3,13.7-5.3,25.9c0,12.2,0.9,20.8,5.3,25.9c4.6,5.3,12.7,6.4,23.4,6.4
					c10.7,0,18.8-1.1,23.4-6.4c4.4-5.1,5.3-13.7,5.3-25.9c0-12.2-0.9-20.8-5.3-25.9c-4.6-5.3-12.7-6.4-23.4-6.4
					C398.4,166.7,390.3,167.8,385.7,173.1z M394.5,218.5L394.5,218.5c-2.3-3-2.7-8.9-2.7-19.5c0-10.6,0.4-16.5,2.7-19.5
					c2.2-2.9,6.7-3.5,14.6-3.5c8,0,12.4,0.5,14.6,3.5c2.3,3,2.7,8.9,2.7,19.5c0,10.6-0.4,16.6-2.7,19.5c-2.2,2.9-6.7,3.5-14.6,3.5
					C401.1,222,396.7,221.5,394.5,218.5z"/>
				<g>
					<g>
						<path fill="#FFFFFF" d="M497.5,167.5c0,0,0,51.7,0,52.3c-2.3,0.6-9,2.1-16,2.1c-13.2,0-15.3-2.1-15.3-15.6v-38.8h-11v40.3
							c0,9.7,1.4,15.1,5,18.6c3.5,3.5,9,4.9,18.9,4.9c3,0,7.3-0.6,9.2-0.8l0.7-0.1c1-0.1,2.2-0.6,4.2-1.4c2-0.9,3.2-1.6,3.2-1.6
							c0.6-0.4,1-0.7,1.5-0.7c0.4,0,0.5,0,0.7,0.9l0,0c0,0.1,0.4,2.9,0.4,2.9h9.5l0-62.9H497.5z"/>
					</g>
				</g>
				<g>
					<g>
						<path fill="#FFFFFF" d="M549.5,167.3l-1.3,0.1l0,0c-1.4,0.1-4.8,1.8-5.6,2.2c-0.9,0.5-3,1.5-3.5,1.5c-0.4,0-0.5,0-0.7-0.9
							c0,0-0.4-2.9-0.4-2.9h-9.4v62.9h11c0,0,0-51.7,0-52.4c2.5-0.5,9.9-1.9,16.9-1.9c7.3,0,10.7,0.7,12.7,2.7
							c1.9,2,2.6,5.4,2.6,12.8v38.9h11v-40.5c0-9.6-1.5-15.1-5-18.5c-3.5-3.4-9.1-4.8-19-4.8C556.2,166.7,551.8,167.1,549.5,167.3z"
							/>
					</g>
				</g>
				<path fill="#FFFFFF" d="M644.3,141.5c0,0,0,26.1,0.1,27c-2.4-0.4-10.4-1.8-19.3-1.8c-10.2,0-17,3.1-21,9.5
					c-3.9,6.3-4.4,15-4.4,22.8c0,7.9,0.5,16.7,4.3,23c3.7,6.3,10.3,9.3,20,9.3c4.8,0,8.1-0.5,10-0.8l1.2-0.2c1.4-0.1,4.8-1.9,5-2
					c0.5-0.2,1.1-0.5,1.7-0.8c0.8-0.4,1.9-0.9,2.2-0.9c0.6,0,0.7,0.1,0.8,0.9l0.4,2.9h10l0-88.9H644.3z M614.3,217.5L614.3,217.5
					c-2.3-3.1-3.1-8.3-3.1-18.5s0.9-15.4,3.2-18.6c2.3-3.1,6-4.3,13.5-4.3c5.5,0,12.3,0.7,16.5,1.4c0,0.7,0,41.4,0,42
					c-2.4,0.6-9.5,2.3-16.5,2.3C620.4,221.8,616.5,220.5,614.3,217.5z"/>
				<path fill="#FFFFFF" d="M197.5,153.7C197.5,153.7,197.5,153.7,197.5,153.7L197.5,153.7C197.5,153.7,197.5,153.7,197.5,153.7z
					 M142,141.5v88.9h11.6c0,0,0-38.8,0-39.5c0.7,0,18.1,0,18.5,0c0.2,0.3,26.6,39.6,26.6,39.6h14.2l-26.5-39.3c0,0-0.1-0.3,0.2-0.3
					c1.3,0,5.5-0.3,11-2.2c3.1-1.1,5.3-2.9,7.2-4.9c3.7-4.1,5.6-9.8,5.6-17.4c0-9.3-2-15.4-6.2-19.3c-4.2-3.9-10.9-5.7-21.1-5.7H142
					z M180.4,151.8c8.3,0,13,1.1,15.4,3.6l0,0c2.6,2.6,2.8,6.5,2.8,10.9c0,4.3-0.2,8.2-2.8,10.8c-2.4,2.5-7.1,3.6-15.4,3.6
					c0,0-26,0-26.8,0c0-0.7,0-28.1,0-28.8C154.4,151.8,180.4,151.8,180.4,151.8z"/>
			</g>
			<g>
				<path id="XMLID_15_" fill="#FFFFFF" d="M149.1,283.4h-6c-0.8,0-1.5-0.7-1.5-1.5v-14.8c0-0.8,0.7-1.5,1.5-1.5h6
					c0.8,0,1.5,0.7,1.5,1.5V282C150.6,282.8,149.9,283.4,149.1,283.4z"/>
				<path id="XMLID_14_" fill="#FFFFFF" d="M179,283.4H172c-0.8,0-1.5-0.7-1.5-1.5v-14.7c0-0.8,0.7-1.5,1.5-1.5h6.9
					c0.8,0,1.5,0.7,1.5,1.5v14.7C180.5,282.7,179.8,283.4,179,283.4z"/>
				<path id="XMLID_13_" fill="#FFFFFF" d="M208.8,283.4h-7.9c-0.9,0-1.6-0.7-1.6-1.6v-14.5c0-0.9,0.7-1.6,1.6-1.6h7.9
					c0.9,0,1.6,0.7,1.6,1.6v14.5C210.4,282.7,209.7,283.4,208.8,283.4z"/>
				<path id="XMLID_12_" fill="#FFFFFF" d="M238.6,283.4h-8.9c-0.9,0-1.7-0.7-1.7-1.7v-14.4c0-0.9,0.7-1.7,1.7-1.7h8.9
					c0.9,0,1.7,0.7,1.7,1.7v14.4C240.3,282.7,239.5,283.4,238.6,283.4z"/>
				<path id="XMLID_11_" fill="#FFFFFF" d="M268.4,283.4h-9.8c-1,0-1.7-0.8-1.7-1.7v-14.2c0-1,0.8-1.7,1.7-1.7h9.8
					c1,0,1.7,0.8,1.7,1.7v14.2C270.2,282.6,269.4,283.4,268.4,283.4z"/>
				<path id="XMLID_10_" fill="#FFFFFF" d="M298.3,283.4h-10.8c-1,0-1.8-0.8-1.8-1.8v-14.1c0-1,0.8-1.8,1.8-1.8h10.8
					c1,0,1.8,0.8,1.8,1.8v14.1C300.1,282.6,299.3,283.4,298.3,283.4z"/>
				<path id="XMLID_9_" fill="#FFFFFF" d="M328.1,283.4h-11.8c-1,0-1.9-0.8-1.9-1.9v-14c0-1,0.8-1.9,1.9-1.9h11.8
					c1,0,1.9,0.8,1.9,1.9v14C330,282.6,329.1,283.4,328.1,283.4z"/>
				<path id="XMLID_8_" fill="#FFFFFF" d="M357.9,283.4h-12.7c-1.1,0-1.9-0.9-1.9-1.9v-13.8c0-1.1,0.9-1.9,1.9-1.9h12.7
					c1.1,0,1.9,0.9,1.9,1.9v13.8C359.9,282.5,359,283.4,357.9,283.4z"/>
				<path id="XMLID_7_" fill="#FFFFFF" d="M387.8,283.4h-13.7c-1.1,0-2-0.9-2-2v-13.7c0-1.1,0.9-2,2-2h13.7c1.1,0,2,0.9,2,2v13.7
					C389.8,282.5,388.9,283.4,387.8,283.4z"/>
				<path id="XMLID_6_" fill="#FFFFFF" d="M417.6,283.4h-14.7c-1.1,0-2.1-0.9-2.1-2.1v-13.6c0-1.1,0.9-2.1,2.1-2.1h14.7
					c1.1,0,2.1,0.9,2.1,2.1v13.6C419.7,282.5,418.7,283.4,417.6,283.4z"/>
				<path id="XMLID_5_" fill="#FFFFFF" d="M447.4,283.4h-15.6c-1.2,0-2.1-1-2.1-2.1v-13.4c0-1.2,1-2.1,2.1-2.1h15.6
					c1.2,0,2.1,1,2.1,2.1v13.4C449.6,282.5,448.6,283.4,447.4,283.4z"/>
				<path id="XMLID_4_" fill="#FFFFFF" d="M757.9,283.4H463.6c-2.2,0-3.9-1.8-3.9-3.9v-9.9c0-2.2,1.8-3.9,3.9-3.9h294.3
					c2.2,0,3.9,1.8,3.9,3.9v9.9C761.8,281.7,760.1,283.4,757.9,283.4z"/>
			</g>
			<g>
				<g id="XMLID_2_">
					<path id="XMLID_3_" fill="#FFFFFF" d="M827.7,203.1c-1.3,0-2.6-0.5-3.6-1.5l-40.8-40.8c-0.6-0.6-1.6-0.2-1.6,0.7v36.3
						c0,2.8-2.2,5.2-5,5.3c-2.9,0.1-5.2-2.3-5.2-5.1v-51c0-1.8,0.9-3.5,2.4-4.5c2.1-1.3,4.7-1,6.4,0.7L821,184
						c0.6,0.6,1.6,0.2,1.6-0.7V147c0-2.8,2.2-5.2,5-5.3c2.9-0.1,5.2,2.3,5.2,5.1v51c0,1.8-0.9,3.6-2.5,4.6
						C829.5,202.9,828.6,203.1,827.7,203.1z"/>
				</g>
				<path id="XMLID_1_" fill="#FFFFFF" d="M756.1,167.3h-15.2c-2.8,0-5.3,2.2-5.3,5c0,2.9,2.3,5.2,5.1,5.2l9,0l0,0
					c0.7,0,1.3,0.6,1.3,1.3l0,0l0,12.8l0,0c0,0.7-0.6,1.3-1.3,1.3l0,0h-18.8c-11.9,0-21.5-9.7-20.8-21.6
					c0.6-10.7,9.5-19.3,20.4-19.3l25.4,0c2.8,0,5.3-2.2,5.3-5c0-2.9-2.3-5.2-5.1-5.2H731c-16.5,0-30.4,12.8-31.1,29.2
					c-0.8,17.6,13.3,32.2,30.7,32.2h25.6c2.8,0,5.1-2.3,5.1-5.1v-25.6C761.2,169.6,758.9,167.3,756.1,167.3z"/>
			</g>
		</g>
	</g>
	<rect y="0" fill="none" width="974.4" height="425.2"/>
</g>
</svg>
