<?xml version="1.0" encoding="utf-8"?>
<!-- Generator: Adobe Illustrator 21.0.0, SVG Export Plug-In . SVG Version: 6.00 Build 0)  -->
<svg version="1.1" id="Слой_1" xmlns="http://www.w3.org/2000/svg" xmlns:xlink="http://www.w3.org/1999/xlink" x="0px" y="0px"
	 viewBox="0 0 20 22.8" style="enable-background:new 0 0 20 22.8;" xml:space="preserve">
<style type="text/css">
	.st0{clip-path:url(#SVGID_2_);fill:none;stroke:#FFFFFF;stroke-linecap:round;stroke-linejoin:round;stroke-miterlimit:10;}
	.st1{clip-path:url(#SVGID_2_);fill:none;stroke:#FFFFFF;stroke-linecap:round;stroke-linejoin:round;}
	
		.st2{clip-path:url(#SVGID_2_);fill:none;stroke:#FFFFFF;stroke-linecap:round;stroke-linejoin:round;stroke-dasharray:2.246,3.369;}
	.st3{clip-path:url(#SVGID_2_);fill:none;stroke:#006272;stroke-linecap:round;stroke-linejoin:round;stroke-miterlimit:10;}
</style>
<g>
	<defs>
		<rect id="SVGID_1_" y="0" width="20" height="22.8"/>
	</defs>
	<clipPath id="SVGID_2_">
		<use xlink:href="#SVGID_1_"  style="overflow:visible;"/>
	</clipPath>
	<path class="st0" d="M0.5,10.5L0.5,10.5c0-1,0.5-1.9,1.3-2.5l6.8-4.9c0.8-0.6,1.9-0.6,2.7,0L18.1,8c0.8,0.6,1.3,1.5,1.3,2.4"/>
	<line class="st1" x1="17.1" y1="10.4" x2="16.1" y2="10.4"/>
	<line class="st2" x1="12.7" y1="10.4" x2="3.2" y2="10.5"/>
	<line class="st1" x1="1.5" y1="10.5" x2="0.5" y2="10.5"/>
	<path class="st3" d="M4.9,5.5C4.9,2.4,7.7,0,11,0.6c1.9,0.4,3.4,1.9,3.8,3.8c0.5,2.3-0.6,4.4-2.3,5.4c-1.6,0.9-2.5,2.6-2.5,4.4
		l0,0.6"/>
	<path class="st0" d="M0.5,12.5L0.5,12.5c0.9,0,1.8,0.3,2.6,0.8L9,17.6c0.6,0.4,1.5,0.4,2.1,0l5.7-4.3c0.8-0.6,1.7-0.9,2.6-0.9h0.1"
		/>
	<polyline class="st0" points="0.5,10.5 0.6,22.3 19.5,22.2 19.4,10.4 	"/>
</g>
</svg>
