<?xml version="1.0" encoding="utf-8"?>
<!-- Generator: Adobe Illustrator 21.0.0, SVG Export Plug-In . SVG Version: 6.00 Build 0)  -->
<svg version="1.1" id="Слой_1" xmlns="http://www.w3.org/2000/svg" xmlns:xlink="http://www.w3.org/1999/xlink" x="0px" y="0px"
	 viewBox="0 0 49.4 60.3" style="enable-background:new 0 0 49.4 60.3;" xml:space="preserve">
<style type="text/css">
	
		.st0{clip-path:url(#SVGID_2_);fill:none;stroke:#006272;stroke-width:1.6;stroke-linecap:round;stroke-linejoin:round;stroke-miterlimit:10;}
	.st1{clip-path:url(#SVGID_2_);fill:none;stroke:#39A2B8;stroke-width:1.6;stroke-linecap:round;stroke-linejoin:round;}
	
		.st2{clip-path:url(#SVGID_2_);fill:none;stroke:#39A2B8;stroke-width:1.6;stroke-linecap:round;stroke-linejoin:round;stroke-dasharray:0,1.99;}
	
		.st3{clip-path:url(#SVGID_2_);fill:none;stroke:#39A2B8;stroke-width:1.6;stroke-linecap:round;stroke-linejoin:round;stroke-miterlimit:10;}
</style>
<g>
	<defs>
		<rect id="SVGID_1_" y="0" width="49.3" height="60.3"/>
	</defs>
	<clipPath id="SVGID_2_">
		<use xlink:href="#SVGID_1_"  style="overflow:visible;"/>
	</clipPath>
	<circle class="st0" cx="30.1" cy="30.1" r="18.5"/>
	<line class="st1" x1="16.7" y1="11.7" x2="16.7" y2="11.7"/>
	<path class="st2" d="M15.1,12.9c-4.8,4.2-7.9,10.3-7.9,17.2c0,8.9,5.1,16.7,12.6,20.4"/>
	<line class="st1" x1="20.8" y1="51" x2="20.8" y2="51"/>
	<path class="st3" d="M43.6,30.4h-4c-0.3,0-0.6,0.2-0.7,0.4l-2.2,3.7c-0.4,0.7-1.4,0.5-1.6-0.2L33,25.1c-0.2-0.9-1.5-0.9-1.7,0
		l-1.9,9c-0.2,0.9-1.5,0.9-1.7,0l-2.1-10.8c-0.2-0.9-1.4-0.9-1.6-0.1l-2.3,6.7c-0.1,0.3-0.4,0.6-0.8,0.6h-4.5"/>
	<path class="st0" d="M25,0.8v2.7c0,1.3-1.1,2.4-2.4,2.4h-9.8c-1.3,0-2.4-1.1-2.4-2.4V0.8"/>
	<path class="st0" d="M34.6,48v5.9c0,3-2.5,5.5-5.5,5.5H6.3c-3,0-5.5-2.5-5.5-5.5V6.3c0-3,2.5-5.5,5.5-5.5h22.8c3,0,5.5,2.5,5.5,5.5
		v5.9"/>
	<polyline class="st3" points="13.9,11.3 16.7,11.7 16.4,14.5 	"/>
	<polyline class="st3" points="18.1,51.8 20.8,51 20,48.3 	"/>
</g>
</svg>
