<svg xmlns="http://www.w3.org/2000/svg" viewBox="0 0 21.4 21.4" class="undefined"><style>.a{fill:none;}.b{fill:#B6ADA5;}</style><circle cx="8.9" cy="8.9" r="6.9" class="a"/><path d="m8.9 17.9c2.1 0 4-0.7 5.6-2l-0.7-0.7c-0.4-0.4-0.4-1 0-1.4s1-0.4 1.4 0l0.7 0.7c1.2-1.5 2-3.5 2-5.6 0-4.9-4-8.9-8.9-8.9-5 0-9 4-9 8.9 0 5 4 9 8.9 9zm0-15.9c3.8 0 6.9 3.1 6.9 6.9s-3.1 6.9-6.9 6.9c-3.8 0.1-6.9-3-6.9-6.9 0-3.8 3.1-6.9 6.9-6.9z" class="b"/><path d="m13.8 13.8c-0.4 0.4-0.4 1 0 1.4l5.9 5.9c0.2 0.2 0.4 0.3 0.7 0.3s0.5-0.1 0.7-0.3c0.4-0.4 0.4-1 0-1.4l-5.9-5.9c-0.3-0.4-1-0.4-1.4 0z" class="b"/></svg>
