<?xml version="1.0" encoding="utf-8"?>
<!-- Generator: Adobe Illustrator 21.0.0, SVG Export Plug-In . SVG Version: 6.00 Build 0)  -->
<svg version="1.2" baseProfile="tiny" id="Слой_1"
	 xmlns="http://www.w3.org/2000/svg" xmlns:xlink="http://www.w3.org/1999/xlink" x="0px" y="0px" viewBox="0 0 119.4 94.6"
	 xml:space="preserve">
<g>
	<path fill="#00FFB8" d="M109.2,39.5l-4.7,4.7c-2.3,2.3-2.3,6.1,0,8.4c2.3,2.3,6.1,2.3,8.4,0l4.7-4.7c2.3-2.3,2.3-6.1,0-8.4
		C115.3,37.1,111.6,37.1,109.2,39.5z"/>
	<path fill="#FF00B3" d="M64.1,23.3h-1.6c-2.3,0-4.2,1.9-4.2,4.2V36h4.9v-1.5c0-1.9,1.6-3.5,3.5-3.5s3.5,1.6,3.5,3.5V36h0.5v-1.5
		v-6.6c-1.6-0.4-3.2-1.2-4.4-2.4L64.1,23.3z"/>
	<path fill="#FF00B3" d="M67.6,34.5c0-0.5-0.4-0.9-0.9-0.9s-0.9,0.4-0.9,0.9V36h1.8V34.5z"/>
	<path fill="#FF00B3" d="M64.6,38.6H57h-3.9v7.3h10.6c1.3-1.9,3.4-3.1,5.9-3.1s4.6,1.2,5.9,3.1h3.3v-7.3h-2.3h-4.4h-3.1H64.6z"/>
	<path fill="#FF00B3" d="M50.6,37.3C50.6,37.3,50.6,37.3,50.6,37.3l0-10.5H37.9l-6.4,10.9v11h2.4c0.6-3.3,3.5-5.8,7-5.8
		s6.4,2.5,7,5.8h2.7v-1.4L50.6,37.3C50.6,37.3,50.6,37.3,50.6,37.3z M48.4,35.8c0,0.8-0.7,1.5-1.5,1.5h-10c-1.2,0-1.9-1.3-1.3-2.2
		l2.8-4.7c0.3-0.5,0.8-0.7,1.3-0.7h7.2c0.8,0,1.5,0.7,1.5,1.5V35.8z"/>
	<path fill="#FF00B3" d="M40.8,45.4c-2.5,0-4.5,2-4.5,4.5c0,0,0,0,0,0s0,0,0,0c0,2.5,2,4.5,4.5,4.5c2.5,0,4.5-2,4.5-4.5
		C45.4,47.5,43.3,45.4,40.8,45.4z"/>
	<path fill="#FF00B3" d="M75.2,34.5c0-0.5-0.4-0.9-0.9-0.9s-0.9,0.4-0.9,0.9V36h1.8V34.5z"/>
	<circle fill="#FF00B3" cx="91.5" cy="62.9" r="7.4"/>
	<path fill="#FF00B3" d="M73.4,31.1c0.3-0.1,0.6-0.1,0.9-0.1c1.9,0,3.5,1.6,3.5,3.5V36h2.3c0.7,0,1.3,0.6,1.3,1.3v9.9
		c0,0.7-0.6,1.3-1.3,1.3h-3.5c0.1,0.5,0.1,1,0.1,1.4c0,3.9-3.2,7.1-7.1,7.1s-7.1-3.2-7.1-7.1c0-0.5,0.1-1,0.1-1.4h-9.4V50
		c0,0.7-0.6,1.3-1.3,1.3h-4c-0.6,3.3-3.5,5.8-7,5.8s-6.4-2.5-7-5.8h-3.7c-0.7,0-1.3-0.6-1.3-1.3V37.3c0-0.2,0.1-0.5,0.2-0.7l7-11.8
		c0.2-0.4,0.7-0.6,1.1-0.6h14.8c0.7,0,1.3,0.6,1.3,1.3V36h2.6v-8.5c0-3.4,2.6-6.3,5.9-6.7l-2.2-2.2h-1c-0.7,0-1.3-0.6-1.3-1.3v-1
		l-0.9-0.9c-1.7-1.7-2.6-3.9-2.6-6.1C45,7.5,35.8,10,29.1,16.6c-10.6,10.6-10.6,27.7,0,38.3l18.6,18.6l0.4-0.4c2-2,5.3-2,7.4,0
		c2,2,2,5.3,0,7.4l-0.4,0.4c10.6,10.5,27.6,10.4,38.2-0.1c2-2,3.7-4.3,4.9-6.7c-2,1.2-4.2,1.9-6.7,1.9c-7.1,0-13-5.8-13-13
		c0-7.1,5.8-13,13-13c3.1,0,6,1.1,8.3,3c-1.3-3.8-3.5-7.5-6.5-10.5L77.5,26.7c-1.3,0.8-2.7,1.3-4.1,1.4V31.1z"/>
	<circle fill="#FF00B3" cx="69.6" cy="50" r="4.5"/>
	<path fill="#00FFB8" d="M55.5,73c-2-2-5.3-2-7.4,0l-0.4,0.4L35.5,85.7c-2,2-2,5.3,0,7.4c1,1,2.4,1.5,3.7,1.5h0
		c1.3,0,2.7-0.5,3.7-1.5l12.2-12.2l0.4-0.4C57.5,78.4,57.5,75.1,55.5,73z"/>
	<path fill="#39A2B8" d="M0,42.4C0,43.7,0.5,45,1.5,46l12.6,12.6c2,2,5.3,2,7.4,0c2-2,2-5.3,0-7.4L8.9,38.7c-2-2-5.3-2-7.4,0
		C0.5,39.7,0,41,0,42.4L0,42.4z"/>
	<path fill="#39A2B8" d="M78.5,62.9c0,7.1,5.8,13,13,13c2.4,0,4.7-0.7,6.7-1.9c3.8-2.3,6.3-6.4,6.3-11.1c0-4-1.8-7.6-4.7-10
		c-2.2-1.9-5.1-3-8.3-3C84.3,50,78.5,55.8,78.5,62.9z M98.9,62.9c0,4.1-3.3,7.4-7.4,7.4c-4.1,0-7.4-3.3-7.4-7.4
		c0-4.1,3.3-7.4,7.4-7.4C95.6,55.5,98.9,58.9,98.9,62.9z"/>
	<path fill="#00FFB8" d="M69.3,15.7c0,0.1,0,0.2,0,0.3h0.1v-3.1c0,0-0.1,0-0.1,0V15.7z"/>
	<path fill="#00FFB8" d="M68.9,10.3c0.1,0,0.2,0,0.3,0.1c-0.6-2.1-2.5-3.7-4.7-3.7c-2.3,0-4.2,1.6-4.7,3.7c0.1,0,0.2-0.1,0.3-0.1
		H68.9z"/>
	<path fill="#00FFB8" d="M56.2,2.6c-1.8,1.8-2.7,4.2-2.6,6.6c0.1,2.2,0.9,4.4,2.6,6.1l0.9,0.9v-4.6c0-4.1,3.4-7.5,7.5-7.5
		s7.5,3.4,7.5,7.5v5.6c0,0.7-0.6,1.3-1.3,1.3h-2.4c-0.6,0.8-1.5,1.4-2.5,1.7v0.4h0.7c3.7,0,6.8,3,6.8,6.8v0.6
		c1.4-0.1,2.9-0.6,4.1-1.4c0.5-0.3,1.1-0.7,1.5-1.2c3.5-3.5,3.5-9.2,0-12.7L68.9,2.6c-1.7-1.7-4-2.6-6.3-2.6h0
		C60.2,0,57.9,0.9,56.2,2.6z"/>
	<path fill="#00FFB8" d="M62.4,12.9v2.8c0,1.2,1,2.2,2.2,2.2c1.2,0,2.2-1,2.2-2.2v-2.8H62.4z M65.4,14.8v0.6c0,0.4-0.4,0.8-0.8,0.8
		s-0.8-0.4-0.8-0.8v-0.6c0-0.4,0.4-0.8,0.8-0.8S65.4,14.4,65.4,14.8z"/>
	<path fill="#00FFB8" d="M66.3,25.5c1.3,1.3,2.8,2.1,4.4,2.4v-0.4c0-2.3-1.9-4.2-4.2-4.2h-2c0,0,0,0,0,0s0,0,0,0h-0.4L66.3,25.5z"/>
	<path fill="#00FFB8" d="M63.3,20.7v-0.4c-1-0.3-1.9-0.9-2.5-1.7h-1.3l2.2,2.2c0.3,0,0.6-0.1,0.9-0.1H63.3z"/>
	<path fill="#00FFB8" d="M59.8,12.8c0,0-0.1,0-0.1,0v3.1h0.1c0-0.1,0-0.2,0-0.3V12.8z"/>
	<path fill="#FFFFFF" d="M45.4,50c0,2.5-2,4.5-4.5,4.5c-2.5,0-4.5-2-4.5-4.5c0,0.7-0.6,1.3-1.3,1.3h-1.2c0.6,3.3,3.5,5.8,7,5.8
		s6.4-2.5,7-5.8h-1.2C46,51.3,45.4,50.7,45.4,50z"/>
	<path fill="#FFFFFF" d="M40.8,42.8c-3.5,0-6.4,2.5-7,5.8H35c0.7,0,1.3,0.6,1.3,1.3c0-2.5,2-4.5,4.5-4.5c2.5,0,4.5,2,4.5,4.5
		c0-0.7,0.6-1.3,1.3-1.3h1.2C47.2,45.4,44.3,42.8,40.8,42.8z"/>
	<path fill="#FFFFFF" d="M73.5,47.2c0-0.7,0.6-1.3,1.3-1.3h0.7c-1.3-1.9-3.4-3.1-5.9-3.1s-4.6,1.2-5.9,3.1h0.7
		c0.7,0,1.3,0.6,1.3,1.3c0,0.7-0.6,1.3-1.3,1.3h-1.8c-0.1,0.5-0.1,1-0.1,1.4c0,3.9,3.2,7.1,7.1,7.1s7.1-3.2,7.1-7.1
		c0-0.5-0.1-1-0.1-1.4h-1.8C74,48.5,73.5,47.9,73.5,47.2z M69.6,54.5c-2.5,0-4.5-2-4.5-4.5c0-2.5,2-4.5,4.5-4.5s4.5,2,4.5,4.5
		C74.1,52.5,72.1,54.5,69.6,54.5z"/>
	<path fill="#FFFFFF" d="M50.6,47.2v1.4h-2.7h-1.2c-0.7,0-1.3,0.6-1.3,1.3s0.6,1.3,1.3,1.3h1.2h4c0.7,0,1.3-0.6,1.3-1.3v-1.4h-1.3
		C51.1,48.5,50.6,47.9,50.6,47.2z"/>
	<path fill="#FFFFFF" d="M51.9,38.6c-0.7,0-1.3-0.6-1.3-1.3v9.9c0-0.7,0.6-1.3,1.3-1.3h1.3v-7.3H51.9z"/>
	<path fill="#FFFFFF" d="M36.3,50C36.3,50,36.3,50,36.3,50C36.3,50,36.3,50,36.3,50c0-0.7-0.6-1.3-1.3-1.3h-1.2h-2.4v-11l6.4-10.9
		h12.7v10.5c0-0.7,0.6-1.3,1.3-1.3h1.3V25.5c0-0.7-0.6-1.3-1.3-1.3H37.1c-0.5,0-0.9,0.2-1.1,0.6l-7,11.8c-0.1,0.2-0.2,0.4-0.2,0.7
		V50c0,0.7,0.6,1.3,1.3,1.3h3.7H35C35.7,51.3,36.3,50.7,36.3,50z"/>
	<path fill="#FFFFFF" d="M63.3,37.3V36h-4.9v1.3c0,0.7-0.6,1.3-1.3,1.3h7.5C63.8,38.6,63.3,38,63.3,37.3z"/>
	<path fill="#FFFFFF" d="M75.2,37.3V36h-1.8v1.3c0,0.7-0.6,1.3-1.3,1.3h4.4C75.7,38.6,75.2,38,75.2,37.3z"/>
	<path fill="#FFFFFF" d="M70.2,37.3c0,0.7-0.6,1.3-1.3,1.3h3.1c-0.7,0-1.3-0.6-1.3-1.3V36h-0.5V37.3z"/>
	<path fill="#FFFFFF" d="M67.6,37.3V36h-1.8v1.3c0,0.7-0.6,1.3-1.3,1.3h4.4C68.2,38.6,67.6,38,67.6,37.3z"/>
	<path fill="#FFFFFF" d="M76.5,38.6h2.3v7.3h-3.3h-0.7c-0.7,0-1.3,0.6-1.3,1.3c0,0.7,0.6,1.3,1.3,1.3h1.8h3.5c0.7,0,1.3-0.6,1.3-1.3
		v-9.9c0-0.7-0.6-1.3-1.3-1.3h-2.3v1.3C77.8,38,77.2,38.6,76.5,38.6z"/>
	<path fill="#FFFFFF" d="M50.6,37.3C50.6,37.3,50.6,37.3,50.6,37.3C50.6,37.3,50.6,37.3,50.6,37.3c0,0.7,0.6,1.3,1.3,1.3h1.3H57
		c-0.7,0-1.3-0.6-1.3-1.3V36h-2.6h-1.3C51.1,36,50.6,36.6,50.6,37.3z"/>
	<path fill="#FFFFFF" d="M65.8,47.2c0-0.7-0.6-1.3-1.3-1.3h-0.7H53.2h-1.3c-0.7,0-1.3,0.6-1.3,1.3c0,0.7,0.6,1.3,1.3,1.3h1.3h9.4
		h1.8C65.2,48.5,65.8,47.9,65.8,47.2z"/>
	<path fill="#FFFFFF" d="M64.6,23.3h2c2.3,0,4.2,1.9,4.2,4.2v0.4v6.6c0-1.6,1.1-3,2.6-3.4v-3.1v-0.6c0-3.7-3-6.8-6.8-6.8h-0.7V22
		C65.9,22.7,65.3,23.3,64.6,23.3z"/>
	<path fill="#FFFFFF" d="M57,38.6c0.7,0,1.3-0.6,1.3-1.3V36v-8.5c0-2.3,1.9-4.2,4.2-4.2h1.6h0.4c-0.7,0-1.3-0.6-1.3-1.3v-1.3h-0.7
		c-0.3,0-0.6,0-0.9,0.1c-3.3,0.4-5.9,3.3-5.9,6.7V36v1.3C55.7,38,56.3,38.6,57,38.6z"/>
	<path fill="#FFFFFF" d="M58.4,18.5h1h1.3c-0.6-0.7-0.9-1.6-0.9-2.6h-0.1v-3.1c-0.5-0.2-0.8-0.7-0.8-1.2c0-0.6,0.4-1.1,1-1.2
		c0.6-2.1,2.5-3.7,4.7-3.7c2.3,0,4.2,1.6,4.7,3.7c0.6,0.2,1,0.6,1,1.2c0,0.5-0.3,1-0.8,1.2v3.1h-0.1c-0.1,1-0.4,1.9-0.9,2.6h2.4
		c0.7,0,1.3-0.6,1.3-1.3v-5.6c0-4.1-3.4-7.5-7.5-7.5s-7.5,3.4-7.5,7.5v4.6v1C57.1,17.9,57.6,18.5,58.4,18.5z"/>
	<path fill="#FFFFFF" d="M63.3,20.3v0.4V22c0,0.7,0.6,1.3,1.3,1.3c0,0,0,0,0,0s0,0,0,0c0.7,0,1.3-0.6,1.3-1.3v-1.3v-0.4
		c-0.4,0.1-0.8,0.2-1.3,0.2C64.1,20.5,63.7,20.4,63.3,20.3z"/>
	<path fill="#FFFFFF" d="M69.3,15.9c0-0.1,0-0.2,0-0.3v-2.9c-0.1,0-0.3,0.1-0.4,0.1h-2.2v2.8c0,1.2-1,2.2-2.2,2.2
		c-1.2,0-2.2-1-2.2-2.2v-2.8h-2.2c-0.1,0-0.3,0-0.4-0.1v2.9c0,0.1,0,0.2,0,0.3c0.1,1,0.4,1.9,0.9,2.6c0.6,0.8,1.5,1.4,2.5,1.7
		c0.4,0.1,0.8,0.2,1.3,0.2c0.5,0,0.9-0.1,1.3-0.2c1-0.3,1.9-0.9,2.5-1.7C68.9,17.8,69.3,16.9,69.3,15.9z"/>
	<path fill="#FFFFFF" d="M60.2,12.9h2.2h4.4h2.2c0.1,0,0.3,0,0.4-0.1c0,0,0.1,0,0.1,0c0.5-0.2,0.8-0.7,0.8-1.2c0-0.6-0.4-1.1-1-1.2
		c-0.1,0-0.2-0.1-0.3-0.1h-8.8c-0.1,0-0.2,0-0.3,0.1c-0.6,0.2-1,0.6-1,1.2c0,0.5,0.3,1,0.8,1.2c0,0,0.1,0,0.1,0
		C59.9,12.9,60,12.9,60.2,12.9z"/>
	<path fill="#FFFFFF" d="M63.8,14.8v0.6c0,0.4,0.4,0.8,0.8,0.8s0.8-0.4,0.8-0.8v-0.6c0-0.4-0.4-0.8-0.8-0.8S63.8,14.4,63.8,14.8z"/>
	<path fill="#FFFFFF" d="M64.6,38.6c0.7,0,1.3-0.6,1.3-1.3V36v-1.5c0-0.5,0.4-0.9,0.9-0.9s0.9,0.4,0.9,0.9V36v1.3
		c0,0.7,0.6,1.3,1.3,1.3s1.3-0.6,1.3-1.3V36v-1.5c0-1.9-1.6-3.5-3.5-3.5s-3.5,1.6-3.5,3.5V36v1.3C63.3,38,63.8,38.6,64.6,38.6z"/>
	<path fill="#FFFFFF" d="M70.8,34.5V36v1.3c0,0.7,0.6,1.3,1.3,1.3s1.3-0.6,1.3-1.3V36v-1.5c0-0.5,0.4-0.9,0.9-0.9s0.9,0.4,0.9,0.9
		V36v1.3c0,0.7,0.6,1.3,1.3,1.3s1.3-0.6,1.3-1.3V36v-1.5c0-1.9-1.6-3.5-3.5-3.5c-0.3,0-0.6,0.1-0.9,0.1
		C71.9,31.5,70.8,32.9,70.8,34.5z"/>
	<path fill="#39A2B8" d="M46.9,29.6h-7.2c-0.5,0-1,0.3-1.3,0.7L35.6,35c-0.6,1,0.1,2.2,1.3,2.2h10c0.8,0,1.5-0.7,1.5-1.5v-4.7
		C48.4,30.3,47.7,29.6,46.9,29.6z"/>
</g>
</svg>
