<?xml version="1.0" encoding="utf-8"?>
<!-- Generator: Adobe Illustrator 21.0.0, SVG Export Plug-In . SVG Version: 6.00 Build 0)  -->
<svg version="1.2" baseProfile="tiny" id="Слой_1"
	 xmlns="http://www.w3.org/2000/svg" xmlns:xlink="http://www.w3.org/1999/xlink" x="0px" y="0px" viewBox="0 0 77 68.8"
	 xml:space="preserve">
<g>
	<path fill="none" d="M9.5,37.5c1-2.8,2.6-5.5,4.8-7.8l2.1-2.1c-1-0.7-2.1-1-3.4-1c-3.3,0-6,2.7-6,6C7,34.6,7.9,36.4,9.5,37.5z"/>
	<path fill="none" d="M26.7,16.6c0,0.2,0.1,0.3,0.2,0.5l0.2-0.2L26.7,16.6z"/>
	<path fill="#39A1B8" d="M77,34.2c0-1.7-0.6-3.4-1.9-4.7c-1.9-1.9-4.6-2.4-7-1.5c-0.7,4-2.5,7.9-5.7,11l-0.4,0.4
		c0.7,0.9,1.1,1.9,1.2,3.1c0.4,0.7,0.7,1.5,0.7,2.4c0,2.5-2,4.5-4.5,4.5h-7.4l-3.6,3.6c0.3,0.7,0.7,1.3,1.3,1.8
		c2.6,2.6,6.8,2.6,9.4,0L75,38.9C76.3,37.6,77,35.9,77,34.2L77,34.2z"/>
	<path fill="#39A1B8" d="M61,40.8c0-0.1-0.1-0.2-0.1-0.2l-0.1,0.1C60.8,40.8,60.9,40.8,61,40.8z"/>
	<path fill="#FF00B3" d="M45.6,24.7h9.3c0.3,0,0.6,0.1,0.9,0.1c-0.4-0.9-1.3-1.6-2.4-1.6h-9.3c-1.4,0-2.6,1.2-2.6,2.6
		c0,0.7,0.3,1.3,0.7,1.8C42.4,26,43.9,24.7,45.6,24.7z"/>
	<path fill="#FF00B3" d="M39.7,39c-2,0-3.7,1.7-3.7,3.7c0,0.8,0.3,1.6,0.7,2.2c0-2.4,2-4.4,4.5-4.4h18.1c0.5,0,0.9,0.1,1.4,0.2
		l0.1-0.1c-0.7-0.9-1.8-1.5-3-1.5h-3H42.7H39.7z"/>
	<path fill="#FF00B3" d="M45.4,21.6h6.7c0.5,0,0.9-0.2,1.2-0.6c0.3-0.4,0.3-0.9,0.2-1.4l-3.6-9.2c-0.3-0.7-0.9-0.8-1.1-0.8
		c-0.2,0-0.9,0.1-1.1,0.8c0,0,0,0,0,0L44,19.6c-0.2,0.5-0.1,1,0.2,1.4C44.4,21.3,44.9,21.6,45.4,21.6z"/>
	<path fill="#FF00B3" d="M42.7,37.4h12.1c2,0,3.6-1.6,3.6-3.6c0-1.2-0.6-2.3-1.5-2.9c-0.6,0.4-1.2,0.7-2,0.7h-9.3
		c-1.1,0-2.1-0.5-2.7-1.3h-0.2c-2,0-3.6,1.6-3.6,3.6C39.1,35.8,40.7,37.4,42.7,37.4z"/>
	<path fill="#FF00B3" d="M9.5,37.5c1,0.7,2.2,1.1,3.5,1.1c3.3,0,6-2.7,6-6c0-2.1-1-3.9-2.6-5l-2.1,2.1C12,32,10.4,34.6,9.5,37.5z"/>
	<path fill="#FF00B3" d="M27,16.9l-0.2,0.2c0.7,1.9,2.4,3.3,4.5,3.4c-0.8-0.3-1.6-0.8-2.2-1.5L27,16.9z"/>
	<path fill="#FF00B3" d="M31.2,35.8c0.3,0.3,0.8,0.3,1.1,0c0.1-0.1,0.2-0.3,0.2-0.5l-0.6-13.1c0,0-0.1,0-0.1,0c0,0-0.1,0-0.1,0
		L31,35.3C31,35.5,31,35.7,31.2,35.8z"/>
	<path fill="#FF00B3" d="M41.2,49.5c-1.5,0-2.9-0.8-3.7-1.9c-1.8-0.8-3.1-2.7-3.1-4.8c0-2.7,2-4.9,4.6-5.2c-0.9-0.9-1.5-2.3-1.5-3.7
		c0-2.3,1.5-4.3,3.7-5c-0.8-0.8-1.3-1.8-1.3-3c0-1.9,1.3-3.5,3-4c0,0,0,0,0,0c-0.6-0.8-0.7-1.9-0.3-2.8l3.6-9.2
		C46.5,8.7,47.6,8,48.8,8c1.2,0,2.2,0.7,2.6,1.8L55,19c0.4,0.9,0.2,2-0.3,2.8c0,0,0,0,0,0c1.7,0.5,3,2.1,3,4c0,0.1,0,0.1,0,0.2
		c0.4,0.6,0.7,1.3,0.7,2.1c0,0.6-0.1,1.1-0.4,1.5c1.3,1,2.1,2.5,2.1,4.2c0,1.4-0.6,2.8-1.5,3.7c1.4,0.2,2.6,0.9,3.4,1.9l0.4-0.4
		c3.1-3.1,5-7,5.7-11c1-6.2-0.8-12.9-5.7-17.7c-6.9-6.9-17.7-7.8-25.5-2.6l1.9,1.9c2.6,2.6,2.6,6.9,0,9.5c-0.8,0.8-1.9,1.4-2.9,1.7
		c-0.7,0.5-1.5,0.9-2.4,1.2l0.6,13.2c0,0.6-0.2,1.3-0.6,1.7s-1,0.7-1.7,0.7s-1.2-0.3-1.7-0.7s-0.7-1.1-0.6-1.7L30,22
		c-1.9-0.5-3.5-1.8-4.4-3.6l-4.3,4.3c2.8,2.4,4.6,5.9,4.6,9.9c0,7.1-5.8,13-13,13c-1.6,0-3.2-0.3-4.6-0.9c0.2,5,2.1,9.9,5.9,13.7
		c1.5,1.5,3.1,2.7,4.9,3.6l9.4-9.4c1.5-1.5,4-1.5,5.5,0c1.5,1.5,1.5,4,0,5.5l-6.2,6.2c5.4,0.2,10.9-1.8,15.1-5.9l5.3-5.3l3.6-3.6
		H41.2z"/>
	<path fill="#39A1B8" d="M34.1,52.6c-1.5-1.5-4-1.5-5.5,0L19.2,62l-0.1,0.1c-1.5,1.5-1.5,4,0,5.5c1.5,1.5,4,1.5,5.5,0l3.3-3.3
		l6.2-6.2C35.6,56.6,35.6,54.2,34.1,52.6z"/>
	<path fill="#00FFB8" d="M25.9,32.6c0-4-1.8-7.5-4.6-9.9c-2.3-1.9-5.2-3-8.3-3c-7.1,0-13,5.8-13,13v0c0,5.5,3.5,10.2,8.4,12.1
		c1.4,0.5,3,0.9,4.6,0.9C20.1,45.6,25.9,39.8,25.9,32.6z M13,26.6c1.2,0,2.4,0.4,3.4,1c1.6,1.1,2.6,2.9,2.6,5c0,3.3-2.7,6-6,6
		c-1.3,0-2.5-0.4-3.5-1.1C7.9,36.4,7,34.6,7,32.6C7,29.3,9.7,26.6,13,26.6z"/>
	<path fill="#39A1B8" d="M31.5,8.7c0.1,0,0.1,0,0.2,0c0.1,0,0.1,0,0.2,0c-0.1,0-0.1,0-0.2,0C31.7,8.7,31.6,8.7,31.5,8.7z"/>
	<path fill="#39A1B8" d="M29.3,9.1c0.2-1.2,1.2-2.1,2.4-2.1c1.2,0,2.2,0.9,2.4,2.1c2.5,1,4.4,3.4,4.4,6.3c0,2.2-1.1,4.1-2.7,5.4
		c1.1-0.3,2.1-0.9,2.9-1.7c2.6-2.6,2.6-6.9,0-9.5l-1.9-1.9L31.1,2c-2.6-2.6-6.9-2.6-9.5,0c-2.6,2.6-2.6,6.9,0,9.5l3.4,3.4
		C25.2,12.3,26.9,10,29.3,9.1z"/>
	<path fill="#39A1B8" d="M35.4,15.4c0-0.4,0.4-0.8,0.8-0.8h0.6c-0.4-2.5-2.5-4.4-5.1-4.4c-2.6,0-4.7,1.9-5.1,4.4h7.1
		c0.4,0,0.8,0.4,0.8,0.8s-0.4,0.8-0.8,0.8h-7.1c0,0.1,0,0.2,0.1,0.3l0.3,0.3l2.2,2.2c0.7,0.7,1.4,1.1,2.2,1.5c0.1,0,0.2,0,0.3,0
		c2.6,0,4.7-1.9,5.1-4.4h-0.6C35.7,16.2,35.4,15.9,35.4,15.4z"/>
	<path fill="#00FFB8" d="M57.8,48.1H39.7c-0.8,0-1.5-0.2-2.2-0.5c0.8,1.2,2.2,1.9,3.7,1.9h10.7h7.4c2.5,0,4.5-2,4.5-4.5
		c0-0.9-0.3-1.7-0.7-2.4c0,0.1,0,0.1,0,0.2C63.1,45.7,60.7,48.1,57.8,48.1z"/>
	<path fill="#00FFB8" d="M59.3,40.5H41.2c-2.5,0-4.5,2-4.5,4.4c0.7,0.9,1.8,1.5,3,1.5h18.1c2,0,3.7-1.7,3.7-3.7
		c0-0.7-0.2-1.4-0.6-1.9c-0.1,0-0.2-0.1-0.3-0.1C60.2,40.6,59.8,40.5,59.3,40.5z"/>
	<path fill="#39A1B8" d="M45.6,31.5h9.3c0.7,0,1.4-0.2,2-0.7c-0.6-0.4-1.3-0.7-2.1-0.7H42.9C43.5,31,44.5,31.5,45.6,31.5z"/>
	<path fill="#39A1B8" d="M56.4,28.9c0.6,0.2,1.1,0.4,1.6,0.8c0.2-0.5,0.4-1,0.4-1.5c0-0.8-0.3-1.5-0.7-2.1
		C57.6,27.1,57.1,28.1,56.4,28.9z"/>
	<path fill="#39A1B8" d="M45.6,24.7c-1.7,0-3.2,1.3-3.4,3c0.5,0.5,1.1,0.8,1.9,0.8h9.3c1.4,0,2.6-1.2,2.6-2.6c0-0.4-0.1-0.7-0.2-1
		c-0.3-0.1-0.6-0.1-0.9-0.1H45.6z"/>
	<path fill="#FFFFFF" d="M58.5,37.5c-0.9,0.9-2.3,1.5-3.7,1.5h3c1.2,0,2.3,0.6,3,1.5c0.1,0.1,0.1,0.1,0.1,0.2
		c0.3,0.6,0.6,1.2,0.6,1.9c0,2-1.7,3.7-3.7,3.7H39.7c-1.2,0-2.3-0.6-3-1.5c-0.4-0.6-0.7-1.4-0.7-2.2c0-2,1.7-3.7,3.7-3.7h3
		c-1.4,0-2.7-0.6-3.7-1.5c-2.6,0.3-4.6,2.5-4.6,5.2c0,2.1,1.3,4,3.1,4.8c0.7,0.3,1.4,0.5,2.2,0.5h18.1c2.9,0,5.3-2.4,5.3-5.3
		c0-0.1,0-0.1,0-0.2c0-1.2-0.5-2.3-1.2-3.1C61.1,38.4,59.9,37.7,58.5,37.5z"/>
	<path fill="#FFFFFF" d="M54.8,39c1.4,0,2.7-0.6,3.7-1.5c0.9-0.9,1.5-2.3,1.5-3.7c0-1.7-0.8-3.2-2.1-4.2c-0.5-0.4-1-0.6-1.6-0.8
		c-0.8,0.8-1.8,1.2-3,1.2h-9.3c-1.2,0-2.2-0.5-3-1.2c-2.1,0.7-3.7,2.6-3.7,5c0,1.4,0.6,2.8,1.5,3.7c0.9,0.9,2.3,1.5,3.7,1.5H54.8z
		 M42.7,30.2h0.2h11.9c0.8,0,1.5,0.3,2.1,0.7c0.9,0.7,1.5,1.7,1.5,2.9c0,2-1.6,3.6-3.6,3.6H42.7c-2,0-3.6-1.6-3.6-3.6
		C39.1,31.8,40.7,30.2,42.7,30.2z"/>
	<path fill="#FFFFFF" d="M44.1,30.1h9.3c1.2,0,2.2-0.5,3-1.2c0.7-0.7,1.2-1.7,1.2-2.8c0-0.1,0-0.1,0-0.2c0-1.9-1.3-3.5-3-4
		c-0.6,0.8-1.5,1.3-2.5,1.3h-6.7c-1,0-1.9-0.5-2.5-1.3c-1.7,0.5-3,2.1-3,4c0,1.2,0.5,2.2,1.3,3C41.9,29.6,42.9,30.1,44.1,30.1z
		 M44.1,23.3h9.3c1.1,0,2,0.7,2.4,1.6c0.1,0.3,0.2,0.7,0.2,1c0,1.4-1.2,2.6-2.6,2.6h-9.3c-0.7,0-1.4-0.3-1.9-0.8
		c-0.5-0.5-0.7-1.1-0.7-1.8C41.5,24.4,42.7,23.3,44.1,23.3z"/>
	<path fill="#FFFFFF" d="M45.4,23.2h6.7c1,0,1.9-0.5,2.5-1.3c0,0,0,0,0,0c0.6-0.8,0.7-1.9,0.3-2.8l-3.6-9.2C51,8.7,49.9,8,48.8,8
		c-1.2,0-2.2,0.7-2.6,1.8L42.5,19c-0.4,0.9-0.2,2,0.3,2.8c0,0,0,0,0,0C43.5,22.7,44.4,23.2,45.4,23.2z M44,19.6l3.6-9.2c0,0,0,0,0,0
		c0.3-0.7,0.9-0.8,1.1-0.8c0.2,0,0.9,0.1,1.1,0.8l3.6,9.2c0.2,0.5,0.1,1-0.2,1.4c-0.3,0.4-0.7,0.6-1.2,0.6h-6.7
		c-0.5,0-0.9-0.2-1.2-0.6C43.9,20.5,43.8,20,44,19.6z"/>
	<path fill="#FFFFFF" d="M30,22l0-0.7c0-0.4,0.4-0.8,0.8-0.8c0.4,0,0.8,0.4,0.8,0.8l0,0.8c0,0,0.1,0,0.1,0c0,0,0.1,0,0.1,0l0-0.8
		c0-0.4,0.3-0.8,0.8-0.8c0.5,0,0.8,0.3,0.8,0.8l0,0.7c0.9-0.2,1.7-0.6,2.4-1.2c1.6-1.2,2.7-3.2,2.7-5.4c0,0.4-0.4,0.8-0.8,0.8h-0.9
		c-0.4,2.5-2.5,4.4-5.1,4.4c-0.1,0-0.2,0-0.3,0c-2.1-0.1-3.9-1.5-4.5-3.4c-0.1-0.2-0.1-0.3-0.2-0.5c0-0.1,0-0.2-0.1-0.3h-0.9
		c-0.4,0-0.8-0.4-0.8-0.8c0,1,0.2,2,0.7,2.9C26.5,20.1,28.1,21.5,30,22z"/>
	<path fill="#FFFFFF" d="M25.8,14.6h0.9c0.4-2.5,2.5-4.4,5.1-4.4c2.6,0,4.7,1.9,5.1,4.4h0.9c0.4,0,0.8,0.4,0.8,0.8
		c0-2.9-1.8-5.3-4.4-6.3c0,0.1,0,0.2,0,0.4c0,0.1,0,0.2,0,0.3c-0.1,0.4-0.4,0.7-0.8,0.7c0,0-0.1,0-0.1,0c-0.4-0.1-0.7-0.5-0.7-0.9
		c0,0,0-0.1,0-0.1c0-0.4-0.3-0.7-0.6-0.8c-0.1,0-0.1,0-0.2,0c-0.1,0-0.1,0-0.2,0c-0.4,0.1-0.6,0.4-0.6,0.8c0,0,0,0.1,0,0.1
		c0.1,0.4-0.2,0.8-0.7,0.9c-0.4,0.1-0.8-0.2-0.9-0.7c0-0.1,0-0.2,0-0.3c0-0.1,0-0.2,0-0.4c-2.4,0.9-4.1,3.1-4.3,5.7
		c0,0.2,0,0.4,0,0.6C25,15,25.3,14.6,25.8,14.6z"/>
	<path fill="#FFFFFF" d="M25.8,16.2h0.9h7.1c0.4,0,0.8-0.4,0.8-0.8s-0.4-0.8-0.8-0.8h-7.1h-0.9c-0.4,0-0.8,0.4-0.8,0.8c0,0,0,0,0,0
		s0,0,0,0C25,15.9,25.3,16.2,25.8,16.2z"/>
	<path fill="#FFFFFF" d="M31.7,7.1c-1.2,0-2.2,0.9-2.4,2.1c0,0.1,0,0.2,0,0.4c0,0.1,0,0.2,0,0.3c0.1,0.4,0.5,0.7,0.9,0.7
		c0.4-0.1,0.7-0.5,0.7-0.9c0,0,0-0.1,0-0.1c0-0.4,0.3-0.7,0.6-0.8c0.1,0,0.1,0,0.2,0c0.1,0,0.1,0,0.2,0c0.4,0.1,0.6,0.4,0.6,0.8
		c0,0,0,0.1,0,0.1c-0.1,0.4,0.2,0.8,0.7,0.9c0,0,0.1,0,0.1,0c0.4,0,0.7-0.3,0.8-0.7c0-0.1,0-0.2,0-0.3c0-0.1,0-0.2,0-0.4
		C33.9,8,32.9,7.1,31.7,7.1z"/>
	<path fill="#FFFFFF" d="M32.6,20.5c-0.4,0-0.8,0.4-0.8,0.8l0,0.8l0.6,13.1c0,0.2-0.1,0.4-0.2,0.5c-0.3,0.3-0.8,0.3-1.1,0
		C31,35.7,31,35.5,31,35.3l0.6-13.1l0-0.8c0-0.4-0.3-0.8-0.8-0.8c-0.5,0-0.8,0.3-0.8,0.8l0,0.7l-0.6,13.2c0,0.6,0.2,1.3,0.6,1.7
		s1,0.7,1.7,0.7s1.2-0.3,1.7-0.7s0.7-1.1,0.6-1.7L33.4,22l0-0.7C33.4,20.9,33,20.5,32.6,20.5z"/>
	<path fill="#FFFFFF" d="M37.7,14.6h-0.9h-0.6c-0.4,0-0.8,0.4-0.8,0.8s0.4,0.8,0.8,0.8h0.6h0.9c0.4,0,0.8-0.4,0.8-0.8
		S38.1,14.6,37.7,14.6z"/>
</g>
</svg>
