<?xml version="1.0" encoding="utf-8"?>
<!-- Generator: Adobe Illustrator 21.0.0, SVG Export Plug-In . SVG Version: 6.00 Build 0)  -->
<svg version="1.2" baseProfile="tiny" id="Слой_1"
	 xmlns="http://www.w3.org/2000/svg" xmlns:xlink="http://www.w3.org/1999/xlink" x="0px" y="0px" viewBox="0 0 98.7 92.9"
	 xml:space="preserve">
<g>
	<path fill="none" d="M19.9,38.5c-0.4,0-0.8-0.4-0.8-0.8v-2.8l-1.8,1.8v3.2c0,0.3,0.2,0.5,0.5,0.5h3.4l1.9-1.9H19.9z"/>
	<path fill="none" d="M32.3,14.2h-1.8c0.2,0.4,0.4,0.9,0.5,1.3L32.3,14.2z"/>
	<path fill="none" d="M85.9,48.1c0.4,0.1,0.8,0.1,1.2,0.1c3.6,0,6.6-3,6.6-6.6c0-3.6-3-6.6-6.6-6.6c-0.2,0-0.3,0-0.5,0
		C87.5,39.3,87.2,43.8,85.9,48.1z"/>
	<path fill="none" d="M25.7,28.4l-4.9,4.9v3.6h4.1l4.4-4.4c-0.5-0.3-1.1-0.7-1.5-1.2C26.8,30.5,26.1,29.5,25.7,28.4z"/>
	<path fill="#39A2B8" d="M27.6,18.8l1.1-1.1h-7.6c-0.3,0-0.5,0.2-0.5,0.5v15.1l4.9-4.9C24.4,25.2,25.1,21.4,27.6,18.8z"/>
	<path fill="#39A2B8" d="M19.1,18.2c0-1.2,0.9-2.1,2.1-2.1h9.2l0.6-0.6c-0.1-0.4-0.3-0.9-0.5-1.3H17.9c-0.3,0-0.5,0.2-0.5,0.5v22
		l1.8-1.8V18.2z"/>
	<path fill="#39A2B8" d="M17.9,11.6h10.8c-0.1-0.1-0.1-0.1-0.2-0.2c-3.9-3.9-10.3-3.9-14.2,0L2.9,22.8C-1,26.7-1,33,2.9,37
		c3.2,3.2,8,3.8,11.8,1.7v-24C14.8,13,16.2,11.6,17.9,11.6z"/>
	<path fill="#00FFB8" d="M58.5,11.7c1.1-3.1,0.4-6.6-2.1-9.1c-3.4-3.4-9-3.4-12.5,0l-9,9h22.9C58,11.6,58.3,11.6,58.5,11.7z"/>
	<path fill="#00FFB8" d="M30.4,16.1h16.9c1.4-0.8,3-1.4,4.5-1.9H32.3L31,15.5L30.4,16.1z"/>
	<path fill="#00FFB8" d="M28.8,17.7l-1.1,1.1c-2.6,2.6-3.2,6.4-1.9,9.5c0.4,1.1,1.1,2.1,1.9,3c0.5,0.5,1,0.9,1.5,1.2l11.7-11.7
		c1.2-1.2,2.4-2.2,3.8-3.1H28.8z"/>
	<path fill="#FF00B3" d="M39.1,30.7h7c0.8,0,1.5,0.3,2,0.9s0.7,1.4,0.5,2.1l9.7-0.1v-19c0-0.3-0.2-0.5-0.5-0.5h-6
		c-1.5,0.5-3,1.1-4.5,1.9h8.4c0.4,0,0.8,0.4,0.8,0.8V30c0,0.4-0.4,0.8-0.8,0.8s-0.8-0.4-0.8-0.8V17.7H44.7c-1.3,0.9-2.6,2-3.8,3.1
		L29.2,32.6l-4.4,4.4h4.9c0.4,0,0.8,0.4,0.8,0.8s-0.4,0.8-0.8,0.8h-6.5l-1.9,1.9h10.3l0.4-3.3C32.4,33.4,35.5,30.7,39.1,30.7z"/>
	<path fill="#FF00B3" d="M46.6,35.3c-0.5-0.6-0.7-1.4-0.5-2.1l-6.9,0.1c-2.3,0-4.3,1.8-4.5,4.1l-1.8,17.1c-0.1,0.6,0.1,1.2,0.5,1.6
		s1,0.7,1.5,0.7h3.9c1.5,0,2.7-1,3-2.5l0.6-2.8c0.6-2.7,3-4.7,5.7-4.7h13c2.8,0,5.2,2,5.7,4.7l0.6,2.8c0.3,1.4,1.6,2.5,3,2.5h3.9
		c0.6,0,1.2-0.2,1.6-0.7c0.4-0.4,0.6-1,0.5-1.6l-1.8-17.1c-0.2-2.3-2.2-4.1-4.5-4.1h-7c0.2,0.7,0,1.5-0.5,2c-0.5,0.6-1.2,0.9-2,0.9
		h-0.9c0,0,0,0,0,0s0,0,0,0h-11C47.8,36.3,47.1,35.9,46.6,35.3z M39.8,47.1c-2.3,0-4.2-1.9-4.2-4.2s1.9-4.2,4.2-4.2
		c2.3,0,4.2,1.9,4.2,4.2S42.2,47.1,39.8,47.1z M65.9,41.5H68v-2.1c0-0.7,0.6-1.3,1.3-1.3s1.3,0.6,1.3,1.3v2.1h2.1
		c0.7,0,1.3,0.6,1.3,1.3s-0.6,1.3-1.3,1.3h-2.1v2.1c0,0.7-0.6,1.3-1.3,1.3S68,46.9,68,46.2v-2.1h-2.1c-0.7,0-1.3-0.6-1.3-1.3
		S65.2,41.5,65.9,41.5z"/>
	<path fill="#FF00B3" d="M56.1,82.2l-6.7-6.7c-3.5-3.5-3.5-9.2,0-12.7c3.5-3.5,9.2-3.5,12.7,0l6.7,6.7l10.4-10.4
		c1.9-1.9,3.5-4.1,4.7-6.4c-2.2-0.6-4.2-1.9-5.7-3.7l0.6,5.2c0.1,1.3-0.3,2.6-1.2,3.6c-0.9,1-2.2,1.6-3.5,1.6h-3.9
		c-2.7,0-5-1.9-5.6-4.5l-0.6-2.8c-0.3-1.5-1.6-2.6-3.2-2.6H48c-1.5,0-2.9,1.1-3.2,2.6l-0.6,2.8c-0.5,2.6-2.9,4.5-5.6,4.5h-3.9
		c-1.3,0-2.6-0.6-3.5-1.6c-0.9-1-1.3-2.3-1.2-3.6L31.4,43H18.7l-3.7,3.7c-6.4,6.4-8.9,15.2-7.6,23.5l8.6-8.6c2-2,5.3-2,7.4,0
		c2,2,2,5.3,0,7.4L11.6,80.8c1,1.5,2.1,2.9,3.4,4.2c10.6,10.6,27.7,10.6,38.3,0L56.1,82.2z"/>
	<path fill="#FF00B3" d="M85.9,48.1c1.3-4.2,1.6-8.7,0.8-13.1c-3.4,0.2-6.1,3.1-6.1,6.6C80.5,44.8,82.8,47.5,85.9,48.1z"/>
	<path fill="#FF00B3" d="M60.9,31.7C60.9,31.7,60.9,31.7,60.9,31.7c0.5-0.7,1.3-1,2-1h7c3.4,0,6.2,2.3,7,5.5
		c1.7-3.2,4.8-5.5,8.4-6.1c-1.3-3.4-3.3-6.6-6.1-9.3C74,15.6,67.1,13,60.3,12.9c0.4,0.5,0.6,1.1,0.6,1.8V31.7z"/>
	<circle fill="#FF00B3" cx="39.8" cy="42.8" r="1.6"/>
	<path fill="#00FFB8" d="M23.5,61.6c-2-2-5.3-2-7.4,0l-8.6,8.6l-4.1,4.1c-2,2-2,5.3,0,7.4c2,2,5.3,2,7.4,0l0.8-0.8L23.5,69
		C25.5,66.9,25.5,63.6,23.5,61.6z"/>
	<path fill="#00FFB8" d="M76.9,36.2c0.1,0.3,0.1,0.6,0.2,0.9l1.3,12c1.5,1.7,3.4,3,5.7,3.7c1,0.3,2.1,0.5,3.2,0.5
		c6.4,0,11.6-5.2,11.6-11.6v0c0-6.4-5.2-11.6-11.6-11.6c-0.6,0-1.2,0.1-1.8,0.2C81.6,30.7,78.5,33.1,76.9,36.2z M86.7,35
		c0.2,0,0.3,0,0.5,0c3.6,0,6.6,3,6.6,6.6c0,3.6-3,6.6-6.6,6.6c-0.4,0-0.8,0-1.2-0.1c-3-0.6-5.4-3.3-5.4-6.5
		C80.5,38.1,83.2,35.2,86.7,35z"/>
	<path fill="#39A2B8" d="M49.4,62.8c-3.5,3.5-3.5,9.2,0,12.7l6.7,6.7l3.4,3.4c3.5,3.5,9.2,3.5,12.7,0c3.5-3.5,3.5-9.2,0-12.7
		l-3.4-3.4l-6.7-6.7C58.6,59.3,52.9,59.3,49.4,62.8z"/>
	<path fill="#FFFFFF" d="M76.9,36.2c-0.7-3.2-3.6-5.5-7-5.5h-7c-0.8,0-1.5,0.3-2,0.9c0,0,0,0.1-0.1,0.1V35c0,0.7-0.6,1.3-1.3,1.3
		h0.9c0.8,0,1.5-0.3,2-0.9c0.5-0.6,0.7-1.4,0.5-2h7c2.3,0,4.3,1.8,4.5,4.1l1.8,17.1c0.1,0.6-0.1,1.2-0.5,1.6c-0.4,0.4-1,0.7-1.6,0.7
		h-3.9c-1.5,0-2.7-1-3-2.5l-0.6-2.8c-0.6-2.7-3-4.7-5.7-4.7H48c-2.8,0-5.2,2-5.7,4.7l-0.6,2.8c-0.3,1.4-1.6,2.5-3,2.5h-3.9
		c-0.6,0-1.1-0.2-1.5-0.7s-0.6-1-0.5-1.6l1.8-17.1c0.3-2.3,2.2-4.1,4.5-4.1l6.9-0.1c-0.2,0.8,0,1.5,0.5,2.1c0.5,0.6,1.2,0.9,2,0.9
		h11c-0.7,0-1.3-0.6-1.3-1.3v-1.3l-9.7,0.1c0.2-0.8,0-1.5-0.5-2.1s-1.2-0.9-2-0.9h-7c-3.7,0-6.7,2.8-7.1,6.4l-0.4,3.3h1.2
		c0.7,0,1.3,0.6,1.3,1.3S33.5,43,32.8,43h-1.4l-1.2,11.2c-0.1,1.3,0.3,2.6,1.2,3.6c0.9,1,2.2,1.6,3.5,1.6h3.9c2.7,0,5-1.9,5.6-4.5
		l0.6-2.8c0.3-1.5,1.6-2.6,3.2-2.6h13c1.5,0,2.9,1.1,3.2,2.6l0.6,2.8c0.5,2.6,2.9,4.5,5.6,4.5h3.9c1.3,0,2.6-0.6,3.5-1.6
		c0.9-1,1.3-2.3,1.2-3.6L78.3,49l-1.3-12C77,36.8,76.9,36.5,76.9,36.2z"/>
	<path fill="#FFFFFF" d="M70.6,39.5c0-0.7-0.6-1.3-1.3-1.3S68,38.7,68,39.5v2.1h2.6V39.5z"/>
	<path fill="#FFFFFF" d="M68,46.2c0,0.7,0.6,1.3,1.3,1.3s1.3-0.6,1.3-1.3v-2.1H68V46.2z"/>
	<path fill="#FFFFFF" d="M65.9,44.1H68h2.6h2.1c0.7,0,1.3-0.6,1.3-1.3s-0.6-1.3-1.3-1.3h-2.1H68h-2.1c-0.7,0-1.3,0.6-1.3,1.3
		S65.2,44.1,65.9,44.1z"/>
	<path fill="#FFFFFF" d="M39.8,38.6c-2.3,0-4.2,1.9-4.2,4.2s1.9,4.2,4.2,4.2c2.3,0,4.2-1.9,4.2-4.2S42.2,38.6,39.8,38.6z M39.8,44.5
		c-0.9,0-1.6-0.7-1.6-1.6s0.7-1.6,1.6-1.6c0.9,0,1.6,0.7,1.6,1.6S40.7,44.5,39.8,44.5z"/>
	<path fill="#FFFFFF" d="M32.8,43c0.7,0,1.3-0.6,1.3-1.3s-0.6-1.3-1.3-1.3h-1.2H21.3h-3.4c-0.3,0-0.5-0.2-0.5-0.5v-3.2v-22
		c0-0.3,0.2-0.5,0.5-0.5h12.6h1.8h19.5h6c0.3,0,0.5,0.2,0.5,0.5v19V35c0,0.7,0.6,1.3,1.3,1.3c0,0,0,0,0,0s0,0,0,0
		c0.7,0,1.3-0.6,1.3-1.3v-3.3v-17c0-0.7-0.2-1.3-0.6-1.8c-0.4-0.6-1.1-1-1.8-1.2c-0.2-0.1-0.5-0.1-0.7-0.1H34.9h-6.2H17.9
		c-1.7,0-3.1,1.4-3.1,3.1v24v1.2c0,1.7,1.4,3.1,3.1,3.1h0.8h12.6H32.8z"/>
	<path fill="#FFFFFF" d="M30.4,16.1h-9.2c-1.2,0-2.1,0.9-2.1,2.1v16.7v2.8c0,0.4,0.4,0.8,0.8,0.8h3.3h6.5c0.4,0,0.8-0.4,0.8-0.8
		s-0.4-0.8-0.8-0.8h-4.9h-4.1v-3.6V18.2c0-0.3,0.2-0.5,0.5-0.5h7.6h15.9h10.2V30c0,0.4,0.4,0.8,0.8,0.8s0.8-0.4,0.8-0.8V16.9
		c0-0.4-0.4-0.8-0.8-0.8h-8.4H30.4z"/>
</g>
</svg>
