<?xml version="1.0" encoding="utf-8"?>
<!-- Generator: Adobe Illustrator 21.0.0, SVG Export Plug-In . SVG Version: 6.00 Build 0)  -->
<svg version="1.1" id="Слой_1" xmlns="http://www.w3.org/2000/svg" xmlns:xlink="http://www.w3.org/1999/xlink" x="0px" y="0px"
	 viewBox="0 0 109.9 60.4" style="enable-background:new 0 0 109.9 60.4;" xml:space="preserve">
<style type="text/css">
	.st0{clip-path:url(#SVGID_2_);fill:#006272;}
	.st1{clip-path:url(#SVGID_2_);fill:none;stroke:#FFFFFF;stroke-linecap:round;stroke-linejoin:round;stroke-miterlimit:10;}
	
		.st2{clip-path:url(#SVGID_2_);fill:none;stroke:#FFFFFF;stroke-width:1.6;stroke-linecap:round;stroke-linejoin:round;stroke-miterlimit:10;}
	.st3{clip-path:url(#SVGID_2_);fill:#39A2B8;}
	.st4{clip-path:url(#SVGID_2_);fill:#FFFFFF;}
	.st5{clip-path:url(#SVGID_2_);fill:none;stroke:#39A2B8;stroke-width:1.6;stroke-miterlimit:10;}
	
		.st6{clip-path:url(#SVGID_2_);fill:none;stroke:#006272;stroke-width:4.5;stroke-linecap:round;stroke-linejoin:round;stroke-miterlimit:10;}
	.st7{clip-path:url(#SVGID_2_);fill:none;stroke:#39A2B8;stroke-width:4.5;stroke-linecap:round;stroke-miterlimit:10;}
</style>
<g>
	<defs>
		<rect id="SVGID_1_" y="0" width="109.9" height="60.4"/>
	</defs>
	<clipPath id="SVGID_2_">
		<use xlink:href="#SVGID_1_"  style="overflow:visible;"/>
	</clipPath>
	<path class="st0" d="M27.8,55c-7.1-7.1-7.1-18.5,0-25.6l11.6-11.6c7.1-7.1,18.5-7.1,25.6,0c7.1,7.1,7.1,18.5,0,25.6L53.4,55
		C46.4,62.1,34.9,62.1,27.8,55"/>
	<path class="st0" d="M47.6,54.3c-5.6,5.6-14.8,5.6-20.4,0L6.5,33.7c-5.6-5.6-5.6-14.8,0-20.4c5.6-5.6,14.8-5.6,20.4,0l20.6,20.6
		C53.2,39.5,53.2,48.7,47.6,54.3"/>
	<line class="st1" x1="36.6" y1="43" x2="18.7" y2="25"/>
	<line class="st1" x1="23.6" y1="29.9" x2="13.9" y2="29.9"/>
	<line class="st1" x1="27.7" y1="34" x2="27.7" y2="23.3"/>
	<line class="st1" x1="36.6" y1="48.7" x2="45.5" y2="39.8"/>
	<line class="st2" x1="36.6" y1="59.6" x2="36.6" y2="28.6"/>
	<path class="st3" d="M76.8,45.1c5.1-5.1,5.1-13.4,0-18.5l-5.6-5.6c-5.1-5.1-13.4-5.1-18.5,0c-5.1,5.1-5.1,13.4,0,18.5l5.6,5.6
		C63.5,50.2,71.7,50.2,76.8,45.1"/>
	<path class="st3" d="M61.4,35.2c5,0,9-4,9-9V18c0-5-4-9-9-9c-5,0-9,4-9,9v8.2C52.3,31.2,56.4,35.2,61.4,35.2"/>
	<path class="st3" d="M53.6,14.4l-6.5,2.3c-0.9,0.3-0.8,1.6,0.1,1.8l7.8,2.3L53.6,14.4z"/>
	<path class="st2" d="M72.7,40.9c3.3-3.3,3.3-8.7,0-12L69,25.2c-3.3-3.3-8.7-3.3-12,0s-3.3,8.7,0,12l3.6,3.6
		C63.9,44.2,69.3,44.2,72.7,40.9z"/>
	<line class="st1" x1="70.4" y1="42.6" x2="63.4" y2="35.6"/>
	<line class="st1" x1="66.9" y1="43.4" x2="63.3" y2="39.8"/>
	<line class="st1" x1="72.7" y1="40.9" x2="68" y2="36.2"/>
	<path class="st4" d="M57,17.2c0,0.8-0.7,1.5-1.5,1.5c-0.8,0-1.5-0.7-1.5-1.5c0-0.8,0.7-1.5,1.5-1.5C56.3,15.8,57,16.4,57,17.2"/>
	<polygon class="st3" points="65.5,56 65.5,46.6 71.3,48.5 	"/>
	<path class="st5" d="M100.8,19h3.1c2.8,0,5.2,2.3,5.2,5.2c0,2.9-2.3,5.2-5.2,5.2H83.3c-2.8,0-5.2-2.3-5.2-5.2"/>
	<path class="st5" d="M75.6,6.9c0,3.4-2.7,6.1-6.1,6.1H61c-3.4,0-6.1-2.7-6.1-6.1c0-3.4,2.7-6.1,6.1-6.1h8.5
		C72.9,0.8,75.6,3.5,75.6,6.9z"/>
	<path class="st5" d="M92.3,24.2h-6.9c-3.2,0-5.9-2.6-5.9-5.9c0-3.2,2.6-5.9,5.9-5.9h16.4"/>
	<path class="st5" d="M75.2,4.8h17.1c5.4,0,9.7,4.3,9.7,9.7c0,5.4-4.3,9.7-9.7,9.7H72.7c-5.4,0-9.7-4.3-9.7-9.7c0-0.5,0-1,0.1-1.4"
		/>
	<line class="st6" x1="87.1" y1="46.6" x2="95.5" y2="38.3"/>
	<line class="st7" x1="26.3" y1="48.9" x2="17.8" y2="57.4"/>
	<line class="st7" x1="38.9" y1="4.8" x2="32.7" y2="10.9"/>
	<line class="st6" x1="2.2" y1="36.4" x2="7.5" y2="41.6"/>
</g>
</svg>
