<?xml version="1.0" encoding="utf-8"?>
<!-- Generator: Adobe Illustrator 21.0.0, SVG Export Plug-In . SVG Version: 6.00 Build 0)  -->
<svg version="1.1" id="Слой_1" xmlns="http://www.w3.org/2000/svg" xmlns:xlink="http://www.w3.org/1999/xlink" x="0px" y="0px"
	 viewBox="0 0 98.2 65.4" style="enable-background:new 0 0 98.2 65.4;" xml:space="preserve">
<style type="text/css">
	.st0{clip-path:url(#SVGID_2_);fill:#39A2B8;}
	
		.st1{clip-path:url(#SVGID_2_);fill:none;stroke:#006272;stroke-width:1.6;stroke-linecap:round;stroke-linejoin:round;stroke-miterlimit:10;}
	
		.st2{clip-path:url(#SVGID_2_);fill:none;stroke:#FFFFFF;stroke-width:1.6;stroke-linecap:round;stroke-linejoin:round;stroke-miterlimit:10;}
	.st3{clip-path:url(#SVGID_2_);fill:#006272;}
	.st4{clip-path:url(#SVGID_2_);fill:none;stroke:#FFFFFF;stroke-linecap:round;stroke-linejoin:round;stroke-miterlimit:10;}
	.st5{clip-path:url(#SVGID_2_);fill:none;stroke:#39A2B8;stroke-linecap:round;stroke-linejoin:round;stroke-miterlimit:10;}
	.st6{clip-path:url(#SVGID_2_);fill:none;stroke:#006272;stroke-linecap:round;stroke-linejoin:round;stroke-miterlimit:10;}
	
		.st7{clip-path:url(#SVGID_2_);fill:none;stroke:#006272;stroke-width:4.5;stroke-linecap:round;stroke-linejoin:round;stroke-miterlimit:10;}
	.st8{clip-path:url(#SVGID_2_);fill:none;stroke:#39A2B8;stroke-width:4.5;stroke-linecap:round;stroke-miterlimit:10;}
</style>
<g>
	<defs>
		<rect id="SVGID_1_" y="0" width="98.2" height="65.4"/>
	</defs>
	<clipPath id="SVGID_2_">
		<use xlink:href="#SVGID_1_"  style="overflow:visible;"/>
	</clipPath>
	<path class="st0" d="M62.2,16.9c-7.1-7.1-18.6-7.1-25.7,0l-7.7,7.7c-7.1,7.1-7.1,18.6,0,25.7c2.3,2.3,5,3.8,7.9,4.6l8.1,10.5V55.3
		c3.6-0.6,7-2.3,9.7-5l7.7-7.7C69.3,35.4,69.3,24,62.2,16.9"/>
	<path class="st1" d="M44.8,32.8H51v-7.5c0-3.4-2.8-6.2-6.2-6.2c-3.4,0-6.2,2.8-6.2,6.2v7.5H44.8"/>
	<path class="st2" d="M36.4,49.6v-7c0-3.8,3.1-6.8,6.8-6.8h3.1c3.8,0,6.8,3.1,6.8,6.8"/>
	<line class="st2" x1="44.8" y1="35.7" x2="44.8" y2="32.8"/>
	<path class="st2" d="M48.3,25.3v4.1c0,1.9-1.6,3.5-3.5,3.5c-1.9,0-3.5-1.6-3.5-3.5v-4.1"/>
	<line class="st1" x1="40.4" y1="25.3" x2="49.2" y2="25.3"/>
	<path class="st3" d="M27.6,4.5c-5.1-5.1-13.3-5.1-18.3,0L3.8,10c-5.1,5.1-5.1,13.3,0,18.3c1.6,1.6,3.6,2.7,5.6,3.3l5.8,7.5v-7.2
		c2.5-0.4,5-1.6,6.9-3.6l5.5-5.5C32.7,17.7,32.7,9.5,27.6,4.5"/>
	<path class="st4" d="M21.6,21.2c0-2.1-1.7-3.9-3.9-3.9h-6.8C8.8,17.3,7,19,7,21.2v6.3"/>
	<line class="st4" x1="14.3" y1="17.3" x2="14.3" y2="15.2"/>
	<path class="st4" d="M11.8,9.8v2.9c0,1.4,1.1,2.5,2.5,2.5c1.4,0,2.5-1.1,2.5-2.5V9.8"/>
	<path class="st5" d="M11.8,9.8c0-1.4,1.1-2.5,2.5-2.5c1.4,0,2.5,1.1,2.5,2.5c0,0-2.9,0.1-3.2-0.5C13.2,9.6,11.8,9.8,11.8,9.8z"/>
	<path class="st4" d="M11.8,10.4h-0.7c-0.4,0-0.8,0.3-0.8,0.8v0.6c0,0.4,0.3,0.8,0.8,0.8h0.7"/>
	<path class="st4" d="M16.8,10.4h0.7c0.4,0,0.8,0.3,0.8,0.8v0.6c0,0.4-0.3,0.8-0.8,0.8h-0.7"/>
	<line class="st5" x1="16.8" y1="10.9" x2="16.8" y2="9.8"/>
	<line class="st5" x1="11.8" y1="9.8" x2="11.8" y2="10.9"/>
	<line class="st4" x1="14.3" y1="11.9" x2="14.3" y2="12.8"/>
	<line class="st2" x1="44.8" y1="28.5" x2="44.8" y2="29.1"/>
	<path class="st0" d="M70.6,6C75.7,1,83.9,1,88.9,6l5.5,5.5c5.1,5.1,5.1,13.3,0,18.3c-1.6,1.6-3.6,2.7-5.6,3.3l-5.8,7.5v-7.2
		c-2.5-0.4-5-1.6-6.9-3.6l-5.5-5.5C65.5,19.3,65.5,11.1,70.6,6"/>
	<path class="st4" d="M80.6,15.1h-1.9v-3c0-2.4,2-4.4,4.4-4.4c2.4,0,4.4,2,4.4,4.4v3h-1.9"/>
	<path class="st4" d="M89,28.8v-4.4c0-2.7-2.2-4.9-4.9-4.9H82c-2.7,0-4.9,2.2-4.9,4.9"/>
	<line class="st4" x1="83.1" y1="19.5" x2="83.1" y2="17.4"/>
	<path class="st4" d="M80.6,12v2.9c0,1.4,1.1,2.5,2.5,2.5c1.4,0,2.5-1.1,2.5-2.5V12"/>
	<line class="st4" x1="86.2" y1="12" x2="79.9" y2="12"/>
	<path class="st6" d="M84.5,14.1L84.5,14.1c0.6,0,1-0.5,1-1c0-0.6-0.5-1-1-1c-0.6,0-1,0.5-1,1C83.5,13.6,83.9,14.1,84.5,14.1z"/>
	<path class="st6" d="M81.6,14.1L81.6,14.1c0.6,0,1-0.5,1-1c0-0.6-0.5-1-1-1c-0.6,0-1,0.5-1,1C80.6,13.6,81,14.1,81.6,14.1z"/>
	<line class="st4" x1="83.1" y1="15.2" x2="83.1" y2="14.7"/>
	<line class="st7" x1="64.6" y1="52.1" x2="58.5" y2="58.1"/>
	<line class="st7" x1="27.5" y1="58.1" x2="24.4" y2="61.1"/>
	<line class="st8" x1="3" y1="36.1" x2="9" y2="42.2"/>
	<line class="st8" x1="36.4" y1="11.7" x2="45.9" y2="2.3"/>
</g>
</svg>
